<svg width="240" height="240" viewBox="0 0 240 240" fill="none" xmlns="http://www.w3.org/2000/svg">
  <rect width="240" height="240" rx="40" fill="#EEE7DC"/>
  <!-- Silo gauche (plus court) -->
  <rect x="62" y="98" width="42" height="80" rx="8" fill="#173A36"/>
  <!-- Dôme silo gauche -->
  <path d="M62 98 Q83 80 104 98 Z" fill="#1F4D42"/>
  <!-- Liserés / fentes de ventilation silo gauche -->
  <rect x="74" y="120" width="18" height="3.5" rx="1.75" fill="#255045" opacity="0.5"/>
  <rect x="74" y="132" width="18" height="3.5" rx="1.75" fill="#255045" opacity="0.5"/>
  <rect x="74" y="144" width="18" height="3.5" rx="1.75" fill="#255045" opacity="0.5"/>
  <!-- Silo droit (plus haut) -->
  <rect x="136" y="70" width="42" height="108" rx="8" fill="#A85F29"/>
  <!-- Dôme silo droit -->
  <path d="M136 70 Q157 52 178 70 Z" fill="#C47030"/>
  <!-- Liserés silo droit -->
  <rect x="148" y="94" width="18" height="3.5" rx="1.75" fill="#C47030" opacity="0.5"/>
  <rect x="148" y="108" width="18" height="3.5" rx="1.75" fill="#C47030" opacity="0.5"/>
  <rect x="148" y="122" width="18" height="3.5" rx="1.75" fill="#C47030" opacity="0.5"/>
  <rect x="148" y="136" width="18" height="3.5" rx="1.75" fill="#C47030" opacity="0.5"/>
  <!-- Passerelle de connexion -->
  <rect x="104" y="126" width="32" height="7" rx="3.5" fill="#173A36" opacity="0.55"/>
  <!-- Plateforme sol -->
  <rect x="44" y="178" width="152" height="7" rx="3.5" fill="#173A36"/>
  <!-- Nom -->
  <text x="120" y="211" text-anchor="middle" fill="#173A36" font-family="Arial, sans-serif" font-size="17" font-weight="800" letter-spacing="4">CIM METAL</text>
</svg>
