<svg width="1200" height="760" viewBox="0 0 1200 760" fill="none" xmlns="http://www.w3.org/2000/svg">
  <rect width="1200" height="760" rx="36" fill="#EEF6ED"/>
  <path d="M334 170C418 274 516 402 516 480C516 590 430 676 320 676C210 676 124 590 124 480C124 402 222 274 306 170C314 160 326 160 334 170Z" fill="#1E6D61"/>
  <path d="M846 164C930 268 1028 396 1028 474C1028 584 942 670 832 670C722 670 636 584 636 474C636 396 734 268 818 164C826 154 838 154 846 164Z" fill="#FFC865"/>
  <text x="120" y="116" fill="#183E39" font-family="Arial, sans-serif" font-size="30" font-weight="700">ECO OIL BURKINA</text>
  <text x="120" y="164" fill="#1E6D61" font-family="Arial, sans-serif" font-size="18">Energy, operations, reach</text>
  <path d="M310 330C352 382 392 440 392 478C392 518 360 550 320 550C280 550 248 518 248 478C248 440 288 382 330 330C324 322 316 322 310 330Z" fill="#FFC865"/>
  <path d="M822 324C864 376 904 434 904 472C904 512 872 544 832 544C792 544 760 512 760 472C760 434 800 376 842 324C836 316 828 316 822 324Z" fill="#1E6D61"/>
</svg>
